<mxfile host="Electron" agent="Mozilla/5.0 (Windows NT 10.0; Win64; x64) AppleWebKit/537.36 (KHTML, like Gecko) draw.io/28.1.2 Chrome/138.0.7204.243 Electron/37.4.0 Safari/537.36" version="28.1.2">
  <diagram name="Page-1" id="NF-cUtigBIaaqxSVGPT4">
    <mxGraphModel dx="1489" dy="1034" grid="1" gridSize="10" guides="1" tooltips="1" connect="1" arrows="1" fold="1" page="1" pageScale="1" pageWidth="1200" pageHeight="1920" math="0" shadow="0">
      <root>
        <mxCell id="0" />
        <mxCell id="1" parent="0" />
        <mxCell id="nMMCn2jiudhXf3QYWPcu-1" value="Data Flow Diagram" style="text;html=1;align=center;verticalAlign=middle;whiteSpace=wrap;rounded=0;fontSize=24;fontStyle=1" vertex="1" parent="1">
          <mxGeometry x="10" width="300" height="50" as="geometry" />
        </mxCell>
        <mxCell id="nMMCn2jiudhXf3QYWPcu-2" value="" style="rounded=0;whiteSpace=wrap;html=1;fontColor=default;fillColor=none;dashed=1;dashPattern=1 2;" vertex="1" parent="1">
          <mxGeometry x="10" y="130" width="180" height="530" as="geometry" />
        </mxCell>
        <mxCell id="nMMCn2jiudhXf3QYWPcu-3" value="&lt;font style=&quot;font-size: 24px;&quot;&gt;Sources&lt;/font&gt;" style="text;html=1;align=center;verticalAlign=middle;whiteSpace=wrap;rounded=0;fillColor=default;" vertex="1" parent="1">
          <mxGeometry x="50" y="100" width="110" height="50" as="geometry" />
        </mxCell>
        <mxCell id="nMMCn2jiudhXf3QYWPcu-18" style="edgeStyle=orthogonalEdgeStyle;rounded=0;orthogonalLoop=1;jettySize=auto;html=1;entryX=0;entryY=0.5;entryDx=0;entryDy=0;" edge="1" parent="1" source="nMMCn2jiudhXf3QYWPcu-4" target="nMMCn2jiudhXf3QYWPcu-15">
          <mxGeometry relative="1" as="geometry" />
        </mxCell>
        <mxCell id="nMMCn2jiudhXf3QYWPcu-19" style="edgeStyle=orthogonalEdgeStyle;rounded=0;orthogonalLoop=1;jettySize=auto;html=1;entryX=0;entryY=0.5;entryDx=0;entryDy=0;" edge="1" parent="1" source="nMMCn2jiudhXf3QYWPcu-4" target="nMMCn2jiudhXf3QYWPcu-10">
          <mxGeometry relative="1" as="geometry" />
        </mxCell>
        <mxCell id="nMMCn2jiudhXf3QYWPcu-20" style="edgeStyle=orthogonalEdgeStyle;rounded=0;orthogonalLoop=1;jettySize=auto;html=1;entryX=0;entryY=0.5;entryDx=0;entryDy=0;" edge="1" parent="1" source="nMMCn2jiudhXf3QYWPcu-4" target="nMMCn2jiudhXf3QYWPcu-16">
          <mxGeometry relative="1" as="geometry" />
        </mxCell>
        <mxCell id="nMMCn2jiudhXf3QYWPcu-4" value="" style="image;aspect=fixed;html=1;points=[];align=center;fontSize=12;image=img/lib/azure2/general/Folder_Blank.svg;" vertex="1" parent="1">
          <mxGeometry x="66" y="282" width="69" height="56.00000000000001" as="geometry" />
        </mxCell>
        <mxCell id="nMMCn2jiudhXf3QYWPcu-5" value="&lt;b&gt;&lt;font style=&quot;font-size: 18px;&quot;&gt;CRM&lt;/font&gt;&lt;/b&gt;" style="text;html=1;align=center;verticalAlign=middle;whiteSpace=wrap;rounded=0;" vertex="1" parent="1">
          <mxGeometry x="70.5" y="336" width="60" height="30" as="geometry" />
        </mxCell>
        <mxCell id="nMMCn2jiudhXf3QYWPcu-30" style="edgeStyle=orthogonalEdgeStyle;rounded=0;orthogonalLoop=1;jettySize=auto;html=1;entryX=0;entryY=0.5;entryDx=0;entryDy=0;" edge="1" parent="1" source="nMMCn2jiudhXf3QYWPcu-6" target="nMMCn2jiudhXf3QYWPcu-22">
          <mxGeometry relative="1" as="geometry" />
        </mxCell>
        <mxCell id="nMMCn2jiudhXf3QYWPcu-31" style="edgeStyle=orthogonalEdgeStyle;rounded=0;orthogonalLoop=1;jettySize=auto;html=1;entryX=0;entryY=0.5;entryDx=0;entryDy=0;" edge="1" parent="1" source="nMMCn2jiudhXf3QYWPcu-6" target="nMMCn2jiudhXf3QYWPcu-21">
          <mxGeometry relative="1" as="geometry" />
        </mxCell>
        <mxCell id="nMMCn2jiudhXf3QYWPcu-32" style="edgeStyle=orthogonalEdgeStyle;rounded=0;orthogonalLoop=1;jettySize=auto;html=1;entryX=0;entryY=0.5;entryDx=0;entryDy=0;" edge="1" parent="1" source="nMMCn2jiudhXf3QYWPcu-6" target="nMMCn2jiudhXf3QYWPcu-23">
          <mxGeometry relative="1" as="geometry" />
        </mxCell>
        <mxCell id="nMMCn2jiudhXf3QYWPcu-6" value="" style="image;aspect=fixed;html=1;points=[];align=center;fontSize=12;image=img/lib/azure2/general/Folder_Blank.svg;" vertex="1" parent="1">
          <mxGeometry x="65.5" y="502" width="69" height="56.00000000000001" as="geometry" />
        </mxCell>
        <mxCell id="nMMCn2jiudhXf3QYWPcu-7" value="&lt;b&gt;&lt;font style=&quot;font-size: 18px;&quot;&gt;ERP&lt;/font&gt;&lt;/b&gt;" style="text;html=1;align=center;verticalAlign=middle;whiteSpace=wrap;rounded=0;" vertex="1" parent="1">
          <mxGeometry x="70.5" y="556" width="60" height="30" as="geometry" />
        </mxCell>
        <mxCell id="nMMCn2jiudhXf3QYWPcu-8" value="" style="rounded=1;whiteSpace=wrap;html=1;fontColor=#000000;fillColor=#f0a30a;dashed=1;dashPattern=1 2;strokeColor=#BD7000;fillStyle=hatch;" vertex="1" parent="1">
          <mxGeometry x="250" y="180" width="190" height="480" as="geometry" />
        </mxCell>
        <mxCell id="nMMCn2jiudhXf3QYWPcu-9" value="Broze Layer" style="rounded=1;whiteSpace=wrap;html=1;fontSize=20;fillColor=#f0a30a;fontColor=#000000;strokeColor=#BD7000;gradientColor=none;opacity=50;fontStyle=1" vertex="1" parent="1">
          <mxGeometry x="250" y="110" width="190" height="60" as="geometry" />
        </mxCell>
        <mxCell id="nMMCn2jiudhXf3QYWPcu-49" style="edgeStyle=orthogonalEdgeStyle;rounded=0;orthogonalLoop=1;jettySize=auto;html=1;" edge="1" parent="1" source="nMMCn2jiudhXf3QYWPcu-10" target="nMMCn2jiudhXf3QYWPcu-43">
          <mxGeometry relative="1" as="geometry" />
        </mxCell>
        <mxCell id="nMMCn2jiudhXf3QYWPcu-10" value="crm_sales_details" style="rounded=1;whiteSpace=wrap;html=1;fontSize=14;fillColor=#f0a30a;fontColor=#000000;strokeColor=#BD7000;gradientColor=none;opacity=50;" vertex="1" parent="1">
          <mxGeometry x="280" y="218" width="130" height="44" as="geometry" />
        </mxCell>
        <mxCell id="nMMCn2jiudhXf3QYWPcu-50" style="edgeStyle=orthogonalEdgeStyle;rounded=0;orthogonalLoop=1;jettySize=auto;html=1;entryX=0;entryY=0.5;entryDx=0;entryDy=0;" edge="1" parent="1" source="nMMCn2jiudhXf3QYWPcu-15" target="nMMCn2jiudhXf3QYWPcu-44">
          <mxGeometry relative="1" as="geometry" />
        </mxCell>
        <mxCell id="nMMCn2jiudhXf3QYWPcu-15" value="crm_cust_info" style="rounded=1;whiteSpace=wrap;html=1;fontSize=14;fillColor=#f0a30a;fontColor=#000000;strokeColor=#BD7000;gradientColor=none;opacity=50;" vertex="1" parent="1">
          <mxGeometry x="280" y="288" width="130" height="44" as="geometry" />
        </mxCell>
        <mxCell id="nMMCn2jiudhXf3QYWPcu-51" style="edgeStyle=orthogonalEdgeStyle;rounded=0;orthogonalLoop=1;jettySize=auto;html=1;" edge="1" parent="1" source="nMMCn2jiudhXf3QYWPcu-16" target="nMMCn2jiudhXf3QYWPcu-45">
          <mxGeometry relative="1" as="geometry" />
        </mxCell>
        <mxCell id="nMMCn2jiudhXf3QYWPcu-16" value="crm_prd_info" style="rounded=1;whiteSpace=wrap;html=1;fontSize=14;fillColor=#f0a30a;fontColor=#000000;strokeColor=#BD7000;gradientColor=none;opacity=50;" vertex="1" parent="1">
          <mxGeometry x="280" y="354" width="130" height="44" as="geometry" />
        </mxCell>
        <mxCell id="nMMCn2jiudhXf3QYWPcu-52" style="edgeStyle=orthogonalEdgeStyle;rounded=0;orthogonalLoop=1;jettySize=auto;html=1;" edge="1" parent="1" source="nMMCn2jiudhXf3QYWPcu-21" target="nMMCn2jiudhXf3QYWPcu-46">
          <mxGeometry relative="1" as="geometry" />
        </mxCell>
        <mxCell id="nMMCn2jiudhXf3QYWPcu-21" value="erp_cust_az12" style="rounded=1;whiteSpace=wrap;html=1;fontSize=14;fillColor=#f0a30a;fontColor=#000000;strokeColor=#BD7000;gradientColor=none;opacity=50;" vertex="1" parent="1">
          <mxGeometry x="280" y="438" width="130" height="44" as="geometry" />
        </mxCell>
        <mxCell id="nMMCn2jiudhXf3QYWPcu-53" style="edgeStyle=orthogonalEdgeStyle;rounded=0;orthogonalLoop=1;jettySize=auto;html=1;" edge="1" parent="1" source="nMMCn2jiudhXf3QYWPcu-22" target="nMMCn2jiudhXf3QYWPcu-47">
          <mxGeometry relative="1" as="geometry" />
        </mxCell>
        <mxCell id="nMMCn2jiudhXf3QYWPcu-22" value="erp_loc_a101" style="rounded=1;whiteSpace=wrap;html=1;fontSize=14;fillColor=#f0a30a;fontColor=#000000;strokeColor=#BD7000;gradientColor=none;opacity=50;" vertex="1" parent="1">
          <mxGeometry x="280" y="508" width="130" height="44" as="geometry" />
        </mxCell>
        <mxCell id="nMMCn2jiudhXf3QYWPcu-54" style="edgeStyle=orthogonalEdgeStyle;rounded=0;orthogonalLoop=1;jettySize=auto;html=1;" edge="1" parent="1" source="nMMCn2jiudhXf3QYWPcu-23" target="nMMCn2jiudhXf3QYWPcu-48">
          <mxGeometry relative="1" as="geometry" />
        </mxCell>
        <mxCell id="nMMCn2jiudhXf3QYWPcu-23" value="erp_px_cat_g1v2" style="rounded=1;whiteSpace=wrap;html=1;fontSize=14;fillColor=#f0a30a;fontColor=#000000;strokeColor=#BD7000;gradientColor=none;opacity=50;" vertex="1" parent="1">
          <mxGeometry x="280" y="574" width="130" height="44" as="geometry" />
        </mxCell>
        <mxCell id="nMMCn2jiudhXf3QYWPcu-41" value="" style="rounded=1;whiteSpace=wrap;html=1;fillColor=#d0cee2;dashed=1;dashPattern=1 2;strokeColor=#56517e;fillStyle=hatch;" vertex="1" parent="1">
          <mxGeometry x="520" y="180" width="190" height="480" as="geometry" />
        </mxCell>
        <mxCell id="nMMCn2jiudhXf3QYWPcu-42" value="Silver Layer" style="rounded=1;whiteSpace=wrap;html=1;fontSize=20;fillColor=#d0cee2;strokeColor=#56517e;opacity=50;fontStyle=1" vertex="1" parent="1">
          <mxGeometry x="520" y="110" width="190" height="60" as="geometry" />
        </mxCell>
        <mxCell id="nMMCn2jiudhXf3QYWPcu-43" value="crm_sales_details" style="rounded=1;whiteSpace=wrap;html=1;fontSize=14;fillColor=#d0cee2;strokeColor=#56517e;opacity=50;" vertex="1" parent="1">
          <mxGeometry x="550" y="218" width="130" height="44" as="geometry" />
        </mxCell>
        <mxCell id="nMMCn2jiudhXf3QYWPcu-44" value="crm_cust_info" style="rounded=1;whiteSpace=wrap;html=1;fontSize=14;fillColor=#d0cee2;strokeColor=#56517e;opacity=50;" vertex="1" parent="1">
          <mxGeometry x="550" y="288" width="130" height="44" as="geometry" />
        </mxCell>
        <mxCell id="nMMCn2jiudhXf3QYWPcu-45" value="crm_prd_info" style="rounded=1;whiteSpace=wrap;html=1;fontSize=14;fillColor=#d0cee2;strokeColor=#56517e;opacity=50;" vertex="1" parent="1">
          <mxGeometry x="550" y="354" width="130" height="44" as="geometry" />
        </mxCell>
        <mxCell id="nMMCn2jiudhXf3QYWPcu-46" value="erp_cust_az12" style="rounded=1;whiteSpace=wrap;html=1;fontSize=14;fillColor=#d0cee2;strokeColor=#56517e;opacity=50;" vertex="1" parent="1">
          <mxGeometry x="550" y="438" width="130" height="44" as="geometry" />
        </mxCell>
        <mxCell id="nMMCn2jiudhXf3QYWPcu-47" value="erp_loc_a101" style="rounded=1;whiteSpace=wrap;html=1;fontSize=14;fillColor=#d0cee2;strokeColor=#56517e;opacity=50;" vertex="1" parent="1">
          <mxGeometry x="550" y="508" width="130" height="44" as="geometry" />
        </mxCell>
        <mxCell id="nMMCn2jiudhXf3QYWPcu-48" value="erp_px_cat_g1v2" style="rounded=1;whiteSpace=wrap;html=1;fontSize=14;fillColor=#d0cee2;strokeColor=#56517e;opacity=50;" vertex="1" parent="1">
          <mxGeometry x="550" y="574" width="130" height="44" as="geometry" />
        </mxCell>
        <mxCell id="nMMCn2jiudhXf3QYWPcu-55" value="" style="rounded=1;whiteSpace=wrap;html=1;fillColor=#fff2cc;dashed=1;dashPattern=1 2;strokeColor=#d6b656;fillStyle=hatch;gradientColor=none;shadow=0;glass=0;" vertex="1" parent="1">
          <mxGeometry x="780" y="180" width="190" height="480" as="geometry" />
        </mxCell>
        <mxCell id="nMMCn2jiudhXf3QYWPcu-56" value="Gold Layer" style="rounded=1;whiteSpace=wrap;html=1;fontSize=20;fillColor=#fff2cc;strokeColor=#d6b656;opacity=50;gradientColor=none;fontStyle=1;fillStyle=solid;" vertex="1" parent="1">
          <mxGeometry x="780" y="110" width="190" height="60" as="geometry" />
        </mxCell>
        <mxCell id="nMMCn2jiudhXf3QYWPcu-57" value="fact_sales" style="rounded=1;whiteSpace=wrap;html=1;fontSize=14;fillColor=#fff2cc;strokeColor=#d6b656;opacity=50;gradientColor=none;fillStyle=solid;" vertex="1" parent="1">
          <mxGeometry x="810" y="230" width="130" height="44" as="geometry" />
        </mxCell>
        <mxCell id="nMMCn2jiudhXf3QYWPcu-58" value="dim_customers" style="rounded=1;whiteSpace=wrap;html=1;fontSize=14;fillColor=#fff2cc;strokeColor=#d6b656;opacity=50;gradientColor=none;fillStyle=solid;" vertex="1" parent="1">
          <mxGeometry x="810" y="366" width="130" height="44" as="geometry" />
        </mxCell>
        <mxCell id="nMMCn2jiudhXf3QYWPcu-59" value="dim_products" style="rounded=1;whiteSpace=wrap;html=1;fontSize=14;fillColor=#fff2cc;strokeColor=#d6b656;opacity=50;gradientColor=none;fillStyle=solid;" vertex="1" parent="1">
          <mxGeometry x="810" y="514" width="130" height="44" as="geometry" />
        </mxCell>
        <mxCell id="nMMCn2jiudhXf3QYWPcu-64" value="" style="endArrow=classic;html=1;rounded=0;exitX=1;exitY=0.5;exitDx=0;exitDy=0;" edge="1" parent="1" source="nMMCn2jiudhXf3QYWPcu-43" target="nMMCn2jiudhXf3QYWPcu-57">
          <mxGeometry width="50" height="50" relative="1" as="geometry">
            <mxPoint x="730" y="338" as="sourcePoint" />
            <mxPoint x="780" y="288" as="targetPoint" />
          </mxGeometry>
        </mxCell>
        <mxCell id="nMMCn2jiudhXf3QYWPcu-65" value="" style="endArrow=classic;html=1;rounded=0;exitX=1;exitY=0.5;exitDx=0;exitDy=0;entryX=0;entryY=0.25;entryDx=0;entryDy=0;jumpStyle=gap;" edge="1" parent="1" target="nMMCn2jiudhXf3QYWPcu-58">
          <mxGeometry width="50" height="50" relative="1" as="geometry">
            <mxPoint x="680" y="310" as="sourcePoint" />
            <mxPoint x="810" y="318" as="targetPoint" />
          </mxGeometry>
        </mxCell>
        <mxCell id="nMMCn2jiudhXf3QYWPcu-66" value="" style="endArrow=classic;html=1;rounded=0;exitX=1;exitY=0.5;exitDx=0;exitDy=0;entryX=0;entryY=0.25;entryDx=0;entryDy=0;jumpStyle=gap;" edge="1" parent="1" target="nMMCn2jiudhXf3QYWPcu-59">
          <mxGeometry width="50" height="50" relative="1" as="geometry">
            <mxPoint x="680" y="380" as="sourcePoint" />
            <mxPoint x="820" y="450" as="targetPoint" />
          </mxGeometry>
        </mxCell>
        <mxCell id="nMMCn2jiudhXf3QYWPcu-67" value="" style="endArrow=classic;html=1;rounded=0;exitX=1;exitY=0.5;exitDx=0;exitDy=0;entryX=0;entryY=0.75;entryDx=0;entryDy=0;jumpStyle=gap;" edge="1" parent="1" target="nMMCn2jiudhXf3QYWPcu-59">
          <mxGeometry width="50" height="50" relative="1" as="geometry">
            <mxPoint x="680" y="600" as="sourcePoint" />
            <mxPoint x="810" y="745" as="targetPoint" />
          </mxGeometry>
        </mxCell>
        <mxCell id="nMMCn2jiudhXf3QYWPcu-68" value="" style="endArrow=classic;html=1;rounded=0;exitX=1;exitY=0.5;exitDx=0;exitDy=0;entryX=0;entryY=0.75;entryDx=0;entryDy=0;jumpStyle=gap;" edge="1" parent="1" target="nMMCn2jiudhXf3QYWPcu-58">
          <mxGeometry width="50" height="50" relative="1" as="geometry">
            <mxPoint x="680" y="533" as="sourcePoint" />
            <mxPoint x="810" y="480" as="targetPoint" />
          </mxGeometry>
        </mxCell>
        <mxCell id="nMMCn2jiudhXf3QYWPcu-69" value="" style="endArrow=classic;html=1;rounded=0;exitX=1;exitY=0.5;exitDx=0;exitDy=0;jumpStyle=gap;" edge="1" parent="1">
          <mxGeometry width="50" height="50" relative="1" as="geometry">
            <mxPoint x="680" y="463" as="sourcePoint" />
            <mxPoint x="810" y="400" as="targetPoint" />
          </mxGeometry>
        </mxCell>
      </root>
    </mxGraphModel>
  </diagram>
</mxfile>
